<svg xmlns="http://www.w3.org/2000/svg" xmlns:xlink="http://www.w3.org/1999/xlink" width="270" zoomAndPan="magnify" viewBox="0 0 202.5 46.499999" height="62" preserveAspectRatio="xMidYMid meet" version="1.0"><defs><g/><clipPath id="990ac64efe"><path d="M 1.476562 0.5625 L 31 0.5625 L 31 45.566406 L 1.476562 45.566406 Z M 1.476562 0.5625 " clip-rule="nonzero"/></clipPath><clipPath id="b0cd0733be"><path d="M 1.476562 0.5625 L 31 0.5625 L 31 35 L 1.476562 35 Z M 1.476562 0.5625 " clip-rule="nonzero"/></clipPath><clipPath id="c11adc674c"><path d="M 40 0.5625 L 49.691406 0.5625 L 49.691406 10 L 40 10 Z M 40 0.5625 " clip-rule="nonzero"/></clipPath><clipPath id="1742cbb8a8"><path d="M 19 1 L 49.691406 1 L 49.691406 45.566406 L 19 45.566406 Z M 19 1 " clip-rule="nonzero"/></clipPath><clipPath id="2e7855b8b6"><path d="M 19 1 L 49.691406 1 L 49.691406 35 L 19 35 Z M 19 1 " clip-rule="nonzero"/></clipPath></defs><g clip-path="url(#990ac64efe)"><path fill="#72ffff" d="M 12.945312 2.820312 L 28.441406 18.386719 C 28.753906 18.699219 29.035156 19.042969 29.277344 19.410156 C 29.523438 19.777344 29.730469 20.167969 29.898438 20.578125 C 30.070312 20.988281 30.195312 21.410156 30.28125 21.84375 C 30.367188 22.277344 30.410156 22.714844 30.410156 23.160156 C 30.410156 23.601562 30.367188 24.042969 30.28125 24.476562 C 30.195312 24.910156 30.070312 25.332031 29.898438 25.742188 C 29.730469 26.152344 29.523438 26.542969 29.277344 26.910156 C 29.035156 27.277344 28.753906 27.617188 28.441406 27.933594 L 12.945312 43.5 C 8.710938 47.753906 1.472656 44.738281 1.476562 38.722656 L 1.476562 7.585938 C 1.472656 1.582031 8.710938 -1.433594 12.945312 2.820312 Z M 12.945312 2.820312 " fill-opacity="1" fill-rule="nonzero"/></g><g clip-path="url(#b0cd0733be)"><path fill="#00d7ff" d="M 12.945312 2.820312 C 8.738281 -1.410156 1.582031 1.546875 1.480469 7.484375 C 1.480469 7.484375 25.867188 30.664062 21.988281 34.441406 L 28.457031 27.945312 C 28.769531 27.632812 29.046875 27.292969 29.292969 26.921875 C 29.539062 26.554688 29.746094 26.164062 29.914062 25.757812 C 30.082031 25.347656 30.210938 24.925781 30.296875 24.492188 C 30.382812 24.054688 30.425781 23.617188 30.425781 23.171875 C 30.425781 22.730469 30.382812 22.292969 30.296875 21.855469 C 30.210938 21.421875 30.082031 21 29.914062 20.589844 C 29.746094 20.179688 29.539062 19.792969 29.292969 19.421875 C 29.046875 19.054688 28.769531 18.714844 28.457031 18.402344 Z M 12.945312 2.820312 " fill-opacity="1" fill-rule="nonzero"/></g><g clip-path="url(#c11adc674c)"><path fill="#590696" d="M 49.691406 5.027344 C 49.691406 5.316406 49.664062 5.601562 49.609375 5.886719 C 49.550781 6.171875 49.46875 6.445312 49.359375 6.714844 C 49.25 6.980469 49.113281 7.234375 48.953125 7.476562 C 48.792969 7.71875 48.609375 7.941406 48.40625 8.144531 C 48.203125 8.351562 47.980469 8.53125 47.742188 8.695312 C 47.5 8.855469 47.25 8.992188 46.980469 9.101562 C 46.714844 9.210938 46.441406 9.296875 46.160156 9.351562 C 45.875 9.410156 45.589844 9.4375 45.300781 9.4375 C 45.011719 9.4375 44.726562 9.410156 44.445312 9.351562 C 44.164062 9.296875 43.886719 9.210938 43.621094 9.101562 C 43.355469 8.992188 43.101562 8.855469 42.863281 8.695312 C 42.621094 8.53125 42.402344 8.351562 42.195312 8.144531 C 41.992188 7.941406 41.8125 7.71875 41.652344 7.476562 C 41.492188 7.234375 41.355469 6.980469 41.246094 6.714844 C 41.132812 6.445312 41.050781 6.171875 40.996094 5.886719 C 40.9375 5.601562 40.910156 5.316406 40.910156 5.027344 C 40.910156 4.738281 40.9375 4.449219 40.996094 4.164062 C 41.050781 3.882812 41.132812 3.605469 41.246094 3.339844 C 41.355469 3.070312 41.492188 2.816406 41.652344 2.574219 C 41.8125 2.335938 41.992188 2.113281 42.195312 1.90625 C 42.402344 1.703125 42.621094 1.519531 42.863281 1.359375 C 43.101562 1.199219 43.355469 1.0625 43.621094 0.949219 C 43.886719 0.839844 44.164062 0.757812 44.445312 0.699219 C 44.726562 0.644531 45.011719 0.613281 45.300781 0.613281 C 45.589844 0.613281 45.875 0.644531 46.160156 0.699219 C 46.441406 0.757812 46.714844 0.839844 46.980469 0.949219 C 47.25 1.0625 47.5 1.199219 47.742188 1.359375 C 47.980469 1.519531 48.203125 1.703125 48.40625 1.90625 C 48.609375 2.113281 48.792969 2.335938 48.953125 2.574219 C 49.113281 2.816406 49.25 3.070312 49.359375 3.339844 C 49.46875 3.605469 49.550781 3.882812 49.609375 4.164062 C 49.664062 4.449219 49.691406 4.738281 49.691406 5.027344 Z M 49.691406 5.027344 " fill-opacity="1" fill-rule="nonzero"/><path fill="#590696" d="M 49.691406 5.027344 C 49.691406 5.316406 49.664062 5.601562 49.609375 5.886719 C 49.550781 6.171875 49.46875 6.445312 49.359375 6.714844 C 49.25 6.980469 49.113281 7.234375 48.953125 7.476562 C 48.792969 7.71875 48.609375 7.941406 48.40625 8.144531 C 48.203125 8.351562 47.980469 8.53125 47.742188 8.695312 C 47.5 8.855469 47.25 8.992188 46.980469 9.101562 C 46.714844 9.210938 46.441406 9.296875 46.160156 9.351562 C 45.875 9.410156 45.589844 9.4375 45.300781 9.4375 C 45.011719 9.4375 44.726562 9.410156 44.445312 9.351562 C 44.164062 9.296875 43.886719 9.210938 43.621094 9.101562 C 43.355469 8.992188 43.101562 8.855469 42.863281 8.695312 C 42.621094 8.53125 42.402344 8.351562 42.195312 8.144531 C 41.992188 7.941406 41.8125 7.71875 41.652344 7.476562 C 41.492188 7.234375 41.355469 6.980469 41.246094 6.714844 C 41.132812 6.445312 41.050781 6.171875 40.996094 5.886719 C 40.9375 5.601562 40.910156 5.316406 40.910156 5.027344 C 40.910156 4.738281 40.9375 4.449219 40.996094 4.164062 C 41.050781 3.882812 41.132812 3.605469 41.246094 3.339844 C 41.355469 3.070312 41.492188 2.816406 41.652344 2.574219 C 41.8125 2.335938 41.992188 2.113281 42.195312 1.90625 C 42.402344 1.703125 42.621094 1.519531 42.863281 1.359375 C 43.101562 1.199219 43.355469 1.0625 43.621094 0.949219 C 43.886719 0.839844 44.164062 0.757812 44.445312 0.699219 C 44.726562 0.644531 45.011719 0.613281 45.300781 0.613281 C 45.589844 0.613281 45.875 0.644531 46.160156 0.699219 C 46.441406 0.757812 46.714844 0.839844 46.980469 0.949219 C 47.25 1.0625 47.5 1.199219 47.742188 1.359375 C 47.980469 1.519531 48.203125 1.703125 48.40625 1.90625 C 48.609375 2.113281 48.792969 2.335938 48.953125 2.574219 C 49.113281 2.816406 49.25 3.070312 49.359375 3.339844 C 49.46875 3.605469 49.550781 3.882812 49.609375 4.164062 C 49.664062 4.449219 49.691406 4.738281 49.691406 5.027344 Z M 49.691406 5.027344 " fill-opacity="1" fill-rule="nonzero"/></g><g clip-path="url(#1742cbb8a8)"><path fill="#0096ff" d="M 47.722656 18.425781 L 32.226562 2.855469 C 28.0625 -1.324219 16.976562 3.523438 20.769531 7.335938 L 31.914062 18.535156 C 32.226562 18.847656 32.503906 19.191406 32.75 19.558594 C 32.996094 19.925781 33.203125 20.316406 33.371094 20.722656 C 33.539062 21.132812 33.667969 21.554688 33.753906 21.992188 C 33.839844 22.425781 33.882812 22.863281 33.882812 23.308594 C 33.882812 23.75 33.839844 24.1875 33.753906 24.625 C 33.667969 25.058594 33.539062 25.480469 33.371094 25.890625 C 33.203125 26.296875 32.996094 26.6875 32.75 27.054688 C 32.503906 27.421875 32.226562 27.765625 31.914062 28.078125 L 20.777344 39.269531 C 17.382812 42.675781 28.105469 47.703125 32.226562 43.566406 L 47.722656 28 C 48.035156 27.683594 48.316406 27.34375 48.5625 26.972656 C 48.8125 26.605469 49.019531 26.214844 49.1875 25.804688 C 49.359375 25.394531 49.488281 24.96875 49.574219 24.535156 C 49.660156 24.097656 49.703125 23.65625 49.703125 23.210938 C 49.703125 22.765625 49.660156 22.328125 49.574219 21.890625 C 49.488281 21.453125 49.359375 21.03125 49.1875 20.621094 C 49.019531 20.210938 48.8125 19.820312 48.5625 19.449219 C 48.316406 19.082031 48.035156 18.738281 47.722656 18.425781 Z M 47.722656 18.425781 " fill-opacity="1" fill-rule="nonzero"/></g><g clip-path="url(#2e7855b8b6)"><path fill="#5800ff" d="M 47.722656 18.425781 L 32.226562 2.855469 C 28.0625 -1.324219 16.976562 3.523438 20.769531 7.335938 L 31.914062 18.535156 C 33.023438 19.648438 33.664062 20.984375 33.835938 22.550781 C 37.675781 27.078125 40.871094 31.476562 41.535156 34.214844 L 47.734375 27.988281 C 48.046875 27.671875 48.324219 27.332031 48.570312 26.964844 C 48.816406 26.59375 49.023438 26.203125 49.191406 25.792969 C 49.363281 25.382812 49.488281 24.960938 49.574219 24.523438 C 49.660156 24.089844 49.703125 23.648438 49.703125 23.203125 C 49.703125 22.761719 49.660156 22.320312 49.574219 21.882812 C 49.484375 21.449219 49.359375 21.027344 49.1875 20.617188 C 49.019531 20.207031 48.808594 19.816406 48.5625 19.449219 C 48.316406 19.078125 48.035156 18.738281 47.722656 18.425781 Z M 47.722656 18.425781 " fill-opacity="1" fill-rule="nonzero"/></g><g fill="#231f20" fill-opacity="1"><g transform="translate(59.24512, 34.407004)"><g><path d="M 3.949219 0 C 8.367188 0 11.605469 -2.617188 11.605469 -7.1875 L 11.605469 -21.070312 L 7.777344 -21.070312 L 7.777344 -7.40625 C 7.777344 -4.972656 6.257812 -3.453125 3.964844 -3.453125 L 0.605469 -3.453125 L 0.605469 0 Z M 3.949219 0 "/></g></g></g><g fill="#231f20" fill-opacity="1"><g transform="translate(72.970966, 34.407004)"><g><path d="M 9.433594 0.480469 C 14.347656 0.480469 17.863281 -3.269531 17.863281 -7.964844 C 17.863281 -12.625 14.347656 -16.40625 9.449219 -16.40625 C 4.570312 -16.40625 1.070312 -12.613281 1.070312 -7.964844 C 1.070312 -3.285156 4.585938 0.480469 9.433594 0.480469 Z M 9.464844 -3.003906 C 6.785156 -3.003906 4.789062 -5.082031 4.789062 -7.964844 C 4.789062 -10.828125 6.785156 -12.9375 9.464844 -12.9375 C 12.148438 -12.9375 14.144531 -10.828125 14.144531 -7.964844 C 14.144531 -5.082031 12.148438 -3.003906 9.464844 -3.003906 Z M 9.464844 -3.003906 "/></g></g></g><g fill="#231f20" fill-opacity="1"><g transform="translate(91.902099, 34.407004)"><g><path d="M 11.277344 0.480469 C 15.726562 0.480469 18.996094 -3.285156 18.996094 -7.964844 C 18.996094 -12.613281 15.757812 -16.390625 11.234375 -16.390625 C 8.941406 -16.390625 6.910156 -15.167969 5.855469 -13.324219 L 5.949219 -15.414062 L 5.949219 -21.8125 L 2.199219 -21.8125 L 2.199219 0 L 5.761719 0 L 5.761719 -2.679688 C 6.847656 -0.726562 8.953125 0.480469 11.277344 0.480469 Z M 10.597656 -2.976562 C 8.054688 -2.976562 5.902344 -5.050781 5.902344 -7.964844 C 5.902344 -10.753906 7.996094 -12.9375 10.582031 -12.9375 C 13.167969 -12.9375 15.277344 -10.953125 15.277344 -7.964844 C 15.277344 -4.878906 13.121094 -2.976562 10.597656 -2.976562 Z M 10.597656 -2.976562 "/></g></g></g><g fill="#231f20" fill-opacity="1"><g transform="translate(112.382425, 34.407004)"><g><path d="M 11.277344 0.480469 C 15.726562 0.480469 18.996094 -3.285156 18.996094 -7.964844 C 18.996094 -12.613281 15.757812 -16.390625 11.234375 -16.390625 C 8.941406 -16.390625 6.910156 -15.167969 5.855469 -13.324219 L 5.949219 -15.414062 L 5.949219 -21.8125 L 2.199219 -21.8125 L 2.199219 0 L 5.761719 0 L 5.761719 -2.679688 C 6.847656 -0.726562 8.953125 0.480469 11.277344 0.480469 Z M 10.597656 -2.976562 C 8.054688 -2.976562 5.902344 -5.050781 5.902344 -7.964844 C 5.902344 -10.753906 7.996094 -12.9375 10.582031 -12.9375 C 13.167969 -12.9375 15.277344 -10.953125 15.277344 -7.964844 C 15.277344 -4.878906 13.121094 -2.976562 10.597656 -2.976562 Z M 10.597656 -2.976562 "/></g></g></g><g fill="#231f20" fill-opacity="1"><g transform="translate(132.86275, 34.407004)"><g><path d="M 7.933594 0.480469 C 11.773438 0.480469 14.625 -1.222656 14.625 -4.726562 C 14.625 -8.101562 12.054688 -9.0625 8.753906 -9.558594 C 6.011719 -9.992188 5.421875 -10.378906 5.421875 -11.574219 C 5.421875 -12.535156 6.136719 -13.339844 7.746094 -13.339844 C 9.480469 -13.339844 10.410156 -12.503906 10.488281 -11.324219 L 14.160156 -11.292969 C 14.160156 -14.332031 11.574219 -16.40625 7.730469 -16.40625 C 3.84375 -16.40625 1.734375 -14.425781 1.734375 -11.496094 C 1.734375 -8.195312 4.367188 -6.972656 7.4375 -6.570312 C 9.605469 -6.242188 10.796875 -5.855469 10.796875 -4.507812 C 10.796875 -3.300781 9.898438 -2.496094 7.964844 -2.496094 C 5.824219 -2.496094 4.742188 -3.59375 4.679688 -5.050781 L 1.085938 -5.066406 C 1.085938 -2.261719 3.253906 0.480469 7.933594 0.480469 Z M 7.933594 0.480469 "/></g></g></g></svg>